<svg xmlns="http://www.w3.org/2000/svg" xmlns:xlink="http://www.w3.org/1999/xlink" xml:space="preserve" version="1.1" style="shape-rendering:geometricPrecision;text-rendering:geometricPrecision;image-rendering:optimizeQuality;" viewBox="0 0 846.66 1058.325" x="0px" y="0px" fill-rule="evenodd" clip-rule="evenodd"><defs><style type="text/css">
   
    .fil0 {fill:black}
   
  </style></defs><g><path class="fil0" d="M197.82 96.64l451.04 0c55.64,0 101.16,45.52 101.16,101.16l0 451.04c0,55.65 -45.52,101.17 -101.16,101.17l-451.04 0c-55.65,0 -101.17,-45.52 -101.17,-101.17l0 -451.04c0,-55.64 45.52,-101.16 101.17,-101.16zm78.32 190.13l130.74 136.56 -130.74 136.54 -45.44 -43.72 88.88 -92.83 -88.88 -92.83 45.44 -43.72zm213.37 190.57l126.46 0 0 63.23 -126.46 0 0 -63.23z"/></g><text x="0" y="861.66" fill="#000000" font-size="5px" font-weight="bold" font-family="'Helvetica Neue', Helvetica, Arial-Unicode, Arial, Sans-serif">Created by zahrotul fuadah</text><text x="0" y="866.66" fill="#000000" font-size="5px" font-weight="bold" font-family="'Helvetica Neue', Helvetica, Arial-Unicode, Arial, Sans-serif">from the Noun Project</text></svg>